<?xml version="1.0" encoding="UTF-8" standalone="no"?>
<!-- Created with Inkscape (http://www.inkscape.org/) -->

<svg
   xmlns:dc="http://purl.org/dc/elements/1.1/"
   xmlns:cc="http://creativecommons.org/ns#"
   xmlns:rdf="http://www.w3.org/1999/02/22-rdf-syntax-ns#"
   xmlns:svg="http://www.w3.org/2000/svg"
   xmlns="http://www.w3.org/2000/svg"
   xmlns:sodipodi="http://sodipodi.sourceforge.net/DTD/sodipodi-0.dtd"
   xmlns:inkscape="http://www.inkscape.org/namespaces/inkscape"
   id="svg2"
   version="1.1"
   inkscape:version="0.91 r13725"
   xml:space="preserve"
   width="564.92413"
   height="117.08591"
   viewBox="0 0 564.92413 117.08591"
   sodipodi:docname="memori1.svg"><metadata
     id="metadata8"><rdf:RDF><cc:Work
         rdf:about=""><dc:format>image/svg+xml</dc:format><dc:type
           rdf:resource="http://purl.org/dc/dcmitype/StillImage" /><dc:title></dc:title></cc:Work></rdf:RDF></metadata><defs
     id="defs6"><clipPath
       clipPathUnits="userSpaceOnUse"
       id="clipPath20"><path
         d="m 113,271 448,0 0,-95 -448,0 0,95 z"
         id="path22"
         inkscape:connector-curvature="0" /></clipPath><clipPath
       clipPathUnits="userSpaceOnUse"
       id="clipPath30"><path
         d="m 113,176 448,0 0,95 -448,0 0,-95 z"
         id="path32"
         inkscape:connector-curvature="0" /></clipPath></defs><sodipodi:namedview
     pagecolor="#ffffff"
     bordercolor="#666666"
     borderopacity="1"
     objecttolerance="10"
     gridtolerance="10"
     guidetolerance="10"
     inkscape:pageopacity="0"
     inkscape:pageshadow="2"
     inkscape:window-width="1156"
     inkscape:window-height="660"
     id="namedview4"
     showgrid="false"
     inkscape:zoom="0.61498647"
     inkscape:cx="260.42775"
     inkscape:cy="44.418731"
     inkscape:window-x="0"
     inkscape:window-y="0"
     inkscape:window-maximized="0"
     inkscape:current-layer="g10"
     fit-margin-top="0"
     fit-margin-left="0"
     fit-margin-right="0"
     fit-margin-bottom="0" /><g
     id="g10"
     inkscape:groupmode="layer"
     inkscape:label="memori1"
     transform="matrix(1.25,0,0,-1.25,-141.31084,337.91873)"><path
       d="m 252.8,222.582 0,-26.047 c 0,-2.754 -0.582,-5.508 -4.004,-5.508 -3.426,0 -4.008,2.754 -4.008,5.508 l 0,26.797 c 0,1.336 0.168,3.84 -1.922,3.84 -0.918,0 -1.5,-0.75 -2.168,-1.336 l -3.507,-3.254 0,-26.047 c 0,-2.754 -0.582,-5.508 -4.008,-5.508 -3.422,0 -4.008,2.754 -4.008,5.508 l 0,33.813 c 0,2.836 0.754,5.675 4.176,5.675 2.004,0 3.34,-1.335 3.84,-3.171 l 0.668,0.5 c 2.086,1.586 3.339,2.671 6.093,2.671 3.09,0 5.512,-1.503 7.348,-4.007 l 0.668,0.668 c 2.504,2.504 3.504,3.339 7.012,3.339 2.672,0 5.093,-1.168 6.679,-3.257 2.004,-2.586 1.836,-4.926 1.918,-8.016 l 0.836,-27.715 c 0.082,-2.836 -0.336,-6.008 -3.922,-6.008 -3.257,0 -3.925,2.754 -4.007,5.426 l -0.836,26.461 c -0.082,1.422 0.336,4.258 -1.836,4.258 -1.172,0 -2.672,-2.004 -3.34,-2.754 l -1.672,-1.836 z"
       style="fill:#ffffff;fill-opacity:1;fill-rule:nonzero;stroke:none"
       id="path36"
       inkscape:connector-curvature="0" /><path
       d="m 297.292,215.738 23.207,0 0,4.84 c 0,1.504 0.082,2.754 -1.004,3.758 l -3.086,2.672 c -1.004,0.918 -2.589,1 -3.839,1 l -6.762,0 c -1.504,0 -2.758,0 -4.094,-0.918 l -2.754,-2.004 c -1,-0.75 -1.668,-1.336 -1.668,-3.672 l 0,-5.676 z m 6.68,-24.711 c -3.344,0 -4.68,0 -7.184,2.168 l -3.422,3.008 c -3.171,2.836 -4.089,4.672 -4.089,9.012 l 0,15.445 c 0,4.258 0.585,6.762 3.925,9.602 l 2.836,2.422 c 3.758,3.254 5.594,3.339 8.852,3.339 l 7.344,0 c 3.925,0 5.761,-0.418 8.847,-2.921 l 3.258,-2.59 c 3.672,-2.922 4.176,-6.012 4.176,-10.434 l 0,-6.43 c 0,-4.589 -0.754,-5.925 -5.512,-5.925 l -25.711,0 0,-2.672 c 0,-0.754 0.582,-1.754 1.168,-2.336 l 2.004,-2.172 c 1.082,-1.168 2.672,-1.504 5.344,-1.504 l 17.195,0 c 2.672,0 5.512,-0.582 5.512,-4.008 0,-3.504 -3.176,-4.004 -5.512,-4.004 l -19.031,0 z"
       style="fill:#ffffff;fill-opacity:1;fill-rule:nonzero;stroke:none"
       id="path38"
       inkscape:connector-curvature="0" /><path
       d="m 373.003,222.582 0,-26.047 c 0,-2.754 -0.586,-5.508 -4.008,-5.508 -3.422,0 -4.007,2.754 -4.007,5.508 l 0,26.797 c 0,1.336 0.167,3.84 -1.922,3.84 -0.918,0 -1.5,-0.75 -2.168,-1.336 l -3.508,-3.254 0,-26.047 c 0,-2.754 -0.582,-5.508 -4.004,-5.508 -3.426,0 -4.008,2.754 -4.008,5.508 l 0,33.813 c 0,2.836 0.75,5.675 4.172,5.675 2.004,0 3.34,-1.335 3.84,-3.171 l 0.668,0.5 c 2.09,1.586 3.34,2.671 6.094,2.671 3.089,0 5.511,-1.503 7.347,-4.007 l 0.668,0.668 c 2.504,2.504 3.508,3.339 7.012,3.339 2.672,0 5.094,-1.168 6.68,-3.257 2.003,-2.586 1.836,-4.926 1.918,-8.016 l 0.835,-27.715 c 0.083,-2.836 -0.335,-6.008 -3.921,-6.008 -3.258,0 -3.926,2.754 -4.008,5.426 l -0.836,26.461 c -0.082,1.422 0.336,4.258 -1.836,4.258 -1.168,0 -2.672,-2.004 -3.34,-2.754 l -1.668,-1.836 z"
       style="fill:#ffffff;fill-opacity:1;fill-rule:nonzero;stroke:none"
       id="path40"
       inkscape:connector-curvature="0" /><path
       d="m 417.491,205.969 c 0,-1.668 0.582,-2.754 2.922,-4.758 1.754,-1.504 3.004,-2.172 5.508,-2.172 l 6.344,0 c 2.504,0 3.758,0.668 5.512,2.172 2.335,2.004 2.921,3.09 2.921,4.758 l 0,15.109 c 0,1.672 -0.586,2.758 -2.921,4.762 -1.754,1.5 -3.008,2.168 -5.512,2.168 l -6.344,0 c -2.504,0 -3.754,-0.668 -5.508,-2.168 -2.34,-2.004 -2.922,-3.09 -2.922,-4.762 l 0,-15.109 z m -8.015,15.109 c 0,5.344 1.086,7.18 5.094,10.438 3.921,3.254 5.761,4.507 11.351,4.507 l 6.344,0 c 5.594,0 7.433,-1.253 11.355,-4.507 4.008,-3.258 5.094,-5.094 5.094,-10.438 l 0,-15.109 c 0,-5.258 -1.336,-7.262 -5.512,-10.77 -4.172,-3.504 -5.843,-4.172 -10.937,-4.172 l -6.344,0 c -5.09,0 -6.762,0.668 -10.933,4.172 -4.176,3.508 -5.512,5.512 -5.512,10.77 l 0,15.109 z"
       style="fill:#ffffff;fill-opacity:1;fill-rule:nonzero;stroke:none"
       id="path42"
       inkscape:connector-curvature="0" /><path
       d="m 469.577,230.094 c 0,2.922 0.332,5.929 4.008,5.929 3.172,0 4.008,-2.671 4.008,-5.343 l 0,-3.254 6.258,5.172 c 2.254,1.84 4.594,3.425 7.097,3.425 l 6.43,0 c 3.086,0 5.676,-1.003 7.844,-3.171 2.672,-2.672 3.59,-5.426 3.59,-9.102 0,-2.754 -0.5,-5.594 -3.922,-5.594 -2.922,0 -4.09,2.34 -4.09,4.926 0,1.336 0,2.34 -0.836,3.508 -1,1.418 -2.922,1.418 -4.84,1.418 l -2.34,0 c -1.504,0 -2.586,-0.75 -4.007,-1.918 l -11.184,-9.27 0,-20.285 c 0,-2.754 -0.586,-5.508 -4.008,-5.508 -3.422,0 -4.008,2.754 -4.008,5.508 l 0,33.559 z"
       style="fill:#ffffff;fill-opacity:1;fill-rule:nonzero;stroke:none"
       id="path44"
       inkscape:connector-curvature="0" /><path
       d="m 541.362,252.219 c 0,2.836 1.59,3.754 3.758,3.754 l 4.594,0 c 2.168,0 3.754,-0.918 3.754,-3.754 l 0,-3.84 c 0,-2.84 -1.586,-3.758 -3.754,-3.758 l -4.594,0 c -2.168,0 -3.758,0.918 -3.758,3.758 l 0,3.84 z m 12.106,-53.18 6.012,0 c 2.672,0 5.508,-0.582 5.508,-4.008 0,-3.504 -3.172,-4.004 -5.508,-4.004 l -20.371,0 c -2.336,0 -5.508,0.5 -5.508,4.004 0,3.426 2.84,4.008 5.508,4.008 l 6.347,0 0,28.969 -6.347,0 c -2.336,0 -5.508,0.5 -5.508,4.008 0,3.422 2.84,4.007 5.508,4.007 l 8.433,0 c 4.59,0 5.926,-0.835 5.926,-5.593 l 0,-31.391 z"
       style="fill:#ffffff;fill-opacity:1;fill-rule:nonzero;stroke:none"
       id="path46"
       inkscape:connector-curvature="0" /><path
       d="m 170.922,204.715 c 6.461,-0.91 18.433,5.625 19.492,10.597 -1.336,0.508 -2.691,0.989 -4.019,1.536 -1.004,0.414 -2.106,0.976 -1.485,2.289 0.582,1.238 1.567,0.64 2.524,0.242 4.492,-1.859 8.988,-2.441 13.507,0.019 1.547,0.84 2.903,1.727 3.243,3.625 0.054,0.309 0.445,0.555 0.679,0.832 0.504,0.59 1.199,1.102 1.477,1.786 1.246,3.089 0.672,6.007 -0.938,8.859 -0.3,0.535 0.071,1.449 0.133,2.188 0.727,-0.25 1.688,-0.297 2.137,-0.801 0.75,-0.844 1.172,-1.981 1.754,-3.028 2.39,2.813 2.617,11.286 -1.133,17.258 -5.434,8.653 -13.137,13.426 -23.098,13.926 -0.304,-1.176 -0.539,-2.082 -0.773,-2.988 -0.817,0.484 -1.664,0.925 -2.449,1.457 -1.508,1.023 -2.848,2.402 -4.489,3.093 -6.269,2.637 -12.746,2.813 -19.234,0.848 -1.746,-0.527 -3.359,-1.504 -5.281,-2.387 2.199,-1.136 4.004,-1.933 5.633,-3 0.488,-0.316 0.492,-1.378 0.714,-2.097 -0.703,-0.031 -1.492,-0.278 -2.101,-0.047 -1.399,0.527 -2.653,1.48 -4.07,1.922 -7.696,2.398 -14.211,-0.168 -19.938,-5.203 -4.023,-3.543 -5.602,-8.106 -4.801,-13.481 0.094,-0.633 -0.527,-1.371 -0.816,-2.062 -0.574,0.48 -1.426,0.847 -1.664,1.461 -0.403,1.027 -0.418,2.211 -0.602,3.379 -5.504,-2.485 -9.531,-11.305 -8.105,-17.95 1.051,0.715 1.918,1.481 2.926,1.926 0.71,0.313 2.011,0.551 2.359,0.18 0.832,-0.895 0.18,-1.684 -0.781,-2.336 -2.481,-1.692 -4.438,-3.891 -5.418,-6.77 -2.621,-7.711 2.59,-17.64 10.398,-19.898 0.582,-0.168 1.207,-0.18 1.961,-0.285 0,1.453 -0.156,2.652 0.063,3.785 0.113,0.586 0.89,1.043 1.363,1.562 0.457,-0.55 1.004,-1.047 1.336,-1.664 0.195,-0.355 0.043,-0.898 0.047,-1.359 0.043,-3.551 1.437,-6.602 4.531,-8.215 2.851,-1.488 6.113,-2.195 9.187,-3.262 1.293,-0.445 1.914,0.141 2.348,1.321 0.523,1.41 1.098,2.82 1.867,4.101 0.254,0.418 1.344,0.75 1.754,0.539 0.434,-0.222 0.61,-1.117 0.719,-1.75 0.055,-0.32 -0.332,-0.699 -0.445,-1.07 -1.219,-3.941 -2.481,-7.871 -3.567,-11.848 -0.179,-0.648 0.219,-1.898 0.742,-2.203 1.086,-0.629 1.77,0.289 2.207,1.27 0.27,0.597 0.586,1.172 0.856,1.769 3.004,6.688 6.766,12.907 11.613,18.426 1.774,2.02 3.613,3.988 5.563,5.836 0.519,0.488 1.55,0.43 2.351,0.621 -0.043,-0.805 -0.086,-1.609 -0.133,-2.414 -0.007,-0.121 -0.062,-0.242 -0.144,-0.535 m -24.766,-17.168 c -1.929,0.449 -3.84,0.828 -5.711,1.348 -4.152,1.152 -7.781,3.074 -10.082,6.968 -0.293,0.496 -1.109,0.813 -1.742,0.957 -10.121,2.289 -16.043,9.957 -15.543,20.336 0.07,1.469 0.711,2.903 0.984,4.371 0.243,1.289 0.688,2.668 0.45,3.895 -1.793,9.383 3.363,19.469 10.562,22.672 0.543,0.242 1.043,0.984 1.215,1.594 2.336,8.257 12.641,14.511 20.773,14.624 1.516,0.02 2.7,0.368 3.926,1.305 5.895,4.516 12.727,5.199 19.813,4.465 3.535,-0.367 6.929,-1.289 10.039,-3.152 0.594,-0.36 1.519,-0.246 2.285,-0.227 13.777,0.356 26.477,-8.641 29.996,-21.265 1.102,-3.958 1.172,-7.993 -0.266,-11.797 -1.511,-4.012 -3.242,-8.004 -5.429,-11.676 -2.617,-4.399 -6.797,-6.735 -12.008,-7.113 -0.766,-0.055 -1.758,-0.504 -2.195,-1.102 -5.86,-7.945 -13.692,-12.059 -23.547,-12.016 -1.988,0.008 -3.106,-0.699 -4.27,-2.066 -5.195,-6.102 -9.019,-13.023 -12.273,-20.293 -0.707,-1.57 -1.731,-2.586 -3.516,-2.691 -3.418,-0.207 -5.043,1.398 -4.621,4.757 0.25,1.997 0.742,3.961 1.16,6.106"
       style="fill:#c5cae9;fill-opacity:1;fill-rule:nonzero;stroke:none"
       id="path48"
       inkscape:connector-curvature="0" /><path
       d="m 181.812,255.555 c 0.336,0.289 1.075,0.625 1.149,1.074 0.078,0.453 -0.383,1.344 -0.797,1.484 -2.539,0.864 -4.695,2.199 -6.422,4.285 -0.277,0.336 -1.308,0.422 -1.711,0.172 -0.347,-0.215 -0.601,-1.261 -0.379,-1.617 1.832,-2.902 4.532,-4.601 8.16,-5.398 m -26.289,-44.09 c 0.231,-4.199 1.399,-7.024 3.551,-9.356 0.449,-0.488 1.516,-0.41 2.297,-0.593 -0.066,0.796 0.067,1.683 -0.238,2.375 -0.551,1.242 -1.504,2.312 -2.035,3.562 -1.039,2.438 -0.938,4.883 0.605,7.125 0.672,0.973 0.801,1.965 -0.273,2.481 -0.426,0.207 -1.66,-0.379 -1.934,-0.911 -0.918,-1.761 -1.562,-3.664 -1.973,-4.683 m 41.836,36.89 c 1.371,0.946 3.114,0.891 4.993,0.497 0.714,-0.149 1.566,0.343 2.355,0.543 -0.527,0.699 -1.019,1.96 -1.586,1.996 -2.164,0.136 -4.433,0.183 -6.508,-0.348 -1.351,-0.348 -2.215,-0.477 -3.562,0.156 -2.149,1.012 -4.539,1.559 -6.879,2.067 -0.484,0.105 -1.192,-0.832 -1.797,-1.289 0.531,-0.446 1.043,-1.243 1.598,-1.274 6.019,-0.332 10.906,-5.144 11.215,-10.961 0.039,-0.683 0.925,-1.324 1.417,-1.984 0.407,0.777 1.286,1.66 1.141,2.316 -0.598,2.703 -1.508,5.336 -2.387,8.281 m -32.972,-2.027 c -0.348,-1.219 -0.696,-1.957 -0.75,-2.719 -0.153,-2.136 -0.285,-4.281 -0.196,-6.418 0.02,-0.5 0.961,-0.957 1.481,-1.433 0.387,0.64 1.144,1.308 1.101,1.922 -0.562,7.601 2.047,11.258 9.223,12.925 0.688,0.161 1.207,1.032 1.801,1.575 -0.738,0.375 -1.512,1.125 -2.211,1.062 -2.867,-0.262 -5.535,-1.25 -7.59,-3.344 -0.93,-0.953 -1.812,-0.964 -2.988,-0.785 -2.524,0.379 -5.074,0.825 -7.61,0.801 -2,-0.019 -2.894,0.57 -3.406,2.504 -0.676,2.539 -2.211,4.539 -5.054,4.863 -0.618,0.071 -1.325,-0.672 -1.989,-1.043 0.473,-0.523 0.852,-1.297 1.446,-1.535 2.242,-0.914 3.273,-2.402 3.167,-5.074 -0.851,-0.203 -1.75,-0.363 -2.613,-0.633 -4.406,-1.398 -7.453,-4.121 -8.164,-8.863 -0.105,-0.719 0.688,-1.571 1.067,-2.36 0.519,0.61 1.363,1.149 1.503,1.832 0.508,2.477 1.653,4.473 3.907,5.614 5.718,2.902 11.652,2.199 17.875,1.109 m -26.504,-26.07 c -1.176,0.48 -1.988,0.75 -2.742,1.137 -2.348,1.195 -4.649,1.199 -6.989,-0.043 -4.832,-2.567 -5.574,-7.528 -3.34,-11.95 0.247,-0.484 1.258,-0.586 1.915,-0.863 0.179,0.668 0.554,1.356 0.492,2 -0.09,0.891 -0.637,1.734 -0.758,2.629 -0.586,4.301 3.168,6.848 6.215,5.98 2.539,-0.722 5.429,-1.578 5.422,-5.199 0,-0.312 0.144,-0.656 0.308,-0.929 1.168,-1.915 2.985,-3.692 3.371,-5.747 0.411,-2.183 -0.629,-4.609 -0.832,-6.945 -0.101,-1.152 -0.293,-2.875 1.539,-2.828 1.848,0.047 1.161,1.715 1.184,2.777 0.047,2 -0.133,4.024 1.027,5.707 1.399,-0.238 2.621,-0.601 3.84,-0.586 0.602,0.008 1.195,0.723 1.793,1.118 -0.543,0.527 -0.996,1.242 -1.644,1.543 -1.106,0.519 -2.465,0.554 -3.481,1.179 -5.82,3.582 -5.773,9.946 -2.969,15.242 0.149,0.282 0.567,0.45 0.887,0.618 1.941,1.011 4.067,1.769 5.789,3.07 2.422,1.828 3.59,4.621 4.32,7.516 0.125,0.484 -0.515,1.16 -0.8,1.75 -0.578,-0.305 -1.313,-0.489 -1.692,-0.957 -0.429,-0.532 -0.523,-1.329 -0.797,-1.993 -1.414,-3.402 -3.789,-5.808 -7.433,-6.64 -3.145,-0.719 -6.469,1.301 -7.543,4.363 -0.203,0.574 -1.203,0.867 -1.836,1.293 -0.223,-0.785 -0.82,-1.691 -0.609,-2.324 0.847,-2.531 2.574,-4.348 5.074,-5.438 0.551,-0.238 1.336,-0.926 1.293,-1.332 -0.137,-1.328 -0.606,-2.625 -1.004,-4.148 m 25.328,2.961 c -0.027,-0.551 -0.106,-1.008 -0.066,-1.453 0.285,-3 1.218,-5.688 4.195,-7.02 2.66,-1.191 5.183,-0.586 7.32,1.277 1.176,1.024 2.258,2.227 3.094,3.536 0.414,0.644 0.172,1.707 0.226,2.582 -0.859,-0.403 -1.832,-0.661 -2.546,-1.239 -1.086,-0.875 -1.922,-2.05 -2.981,-2.964 -1.285,-1.11 -2.773,-1.516 -4.34,-0.532 -1.734,1.09 -2.226,2.707 -2.183,4.715 0.05,2.539 3.851,5.731 6.683,6.473 3.559,0.929 7.059,2.101 10.887,3.261 -0.027,0.032 0.305,-0.367 0.648,-0.753 3.407,-3.864 9.922,-4.872 14.215,-2.094 0.496,0.32 0.598,1.242 0.883,1.883 -0.672,0.199 -1.344,0.558 -2.012,0.543 -0.613,-0.012 -1.207,-0.477 -1.832,-0.664 -3.418,-1.036 -6.464,-0.497 -9.054,2.113 -0.996,1.004 -1.231,1.898 -0.489,3.269 1.649,3.032 1.551,6.2 -0.035,9.239 -0.262,0.504 -1.203,0.656 -1.828,0.968 -0.246,-0.668 -0.535,-1.328 -0.719,-2.011 -0.058,-0.203 0.164,-0.485 0.258,-0.727 1.199,-3.156 0.508,-5.918 -1.73,-8.359 -2.028,-2.211 -4.711,-3 -7.528,-3.496 -3.582,-0.633 -6.816,-1.828 -9.078,-4.954 -0.328,-0.457 -1.496,-0.683 -2.117,-0.496 -4.875,1.477 -8.633,-0.105 -11.93,-3.769 -1.304,-1.453 -1.906,-2.949 -1.816,-4.766 0.031,-0.593 0.531,-1.168 0.816,-1.75 0.578,0.395 1.368,0.664 1.684,1.207 0.516,0.879 0.559,2.035 1.082,2.903 1.734,2.863 5.633,4.921 10.293,3.078 m 7.711,-18.504 c 0.082,0.293 0.137,0.414 0.144,0.535 0.047,0.805 0.09,1.609 0.129,2.414 -0.793,-0.191 -1.828,-0.133 -2.347,-0.621 -1.95,-1.848 -3.789,-3.816 -5.563,-5.836 -4.847,-5.519 -8.609,-11.738 -11.613,-18.426 -0.27,-0.597 -0.586,-1.176 -0.852,-1.769 -0.445,-0.981 -1.125,-1.899 -2.211,-1.266 -0.523,0.301 -0.921,1.551 -0.742,2.199 1.086,3.977 2.348,7.907 3.567,11.848 0.113,0.375 0.5,0.75 0.445,1.07 -0.109,0.633 -0.285,1.528 -0.719,1.75 -0.41,0.211 -1.504,-0.121 -1.754,-0.535 -0.769,-1.285 -1.344,-2.695 -1.867,-4.105 -0.434,-1.18 -1.055,-1.766 -2.348,-1.321 -3.074,1.067 -6.336,1.774 -9.191,3.262 -3.09,1.613 -4.484,4.664 -4.527,8.215 -0.008,0.461 0.148,1.004 -0.047,1.359 -0.332,0.617 -0.879,1.114 -1.336,1.66 -0.473,-0.515 -1.25,-0.972 -1.363,-1.562 -0.219,-1.129 -0.063,-2.328 -0.063,-3.781 -0.754,0.105 -1.379,0.117 -1.961,0.285 -7.808,2.258 -13.019,12.187 -10.398,19.898 0.98,2.879 2.937,5.078 5.418,6.77 0.961,0.652 1.613,1.441 0.781,2.332 -0.348,0.375 -1.649,0.137 -2.359,-0.176 -1.008,-0.445 -1.875,-1.211 -2.926,-1.926 -1.426,6.641 2.601,15.465 8.105,17.95 0.184,-1.168 0.199,-2.352 0.602,-3.379 0.238,-0.614 1.09,-0.981 1.664,-1.461 0.289,0.691 0.91,1.429 0.816,2.062 -0.801,5.375 0.778,9.938 4.801,13.481 5.727,5.035 12.242,7.601 19.938,5.203 1.417,-0.442 2.671,-1.395 4.07,-1.922 0.609,-0.231 1.398,0.016 2.105,0.047 -0.226,0.719 -0.23,1.781 -0.718,2.097 -1.629,1.067 -3.434,1.864 -5.633,3 1.922,0.887 3.535,1.86 5.281,2.387 6.488,1.965 12.965,1.789 19.238,-0.848 1.637,-0.687 2.977,-2.07 4.485,-3.093 0.785,-0.532 1.632,-0.973 2.449,-1.457 0.234,0.906 0.469,1.812 0.773,2.988 9.961,-0.5 17.664,-5.273 23.098,-13.926 3.75,-5.972 3.523,-14.445 1.133,-17.258 -0.582,1.047 -1.004,2.184 -1.754,3.028 -0.449,0.504 -1.41,0.547 -2.137,0.801 -0.062,-0.739 -0.433,-1.653 -0.133,-2.188 1.61,-2.852 2.184,-5.77 0.934,-8.859 -0.274,-0.684 -0.969,-1.196 -1.473,-1.786 -0.234,-0.273 -0.625,-0.523 -0.679,-0.832 -0.34,-1.894 -1.696,-2.785 -3.243,-3.625 -4.519,-2.46 -9.015,-1.878 -13.503,-0.019 -0.958,0.398 -1.946,0.996 -2.532,-0.242 -0.617,-1.313 0.485,-1.875 1.489,-2.289 1.328,-0.547 2.683,-1.028 4.019,-1.536 -1.059,-4.972 -13.031,-11.507 -19.492,-10.597"
       style="fill:#ff4081;fill-opacity:1;fill-rule:nonzero;stroke:none"
       id="path50"
       inkscape:connector-curvature="0" /><path
       d="m 163.211,223.219 c -4.66,1.843 -8.559,-0.211 -10.293,-3.078 -0.523,-0.868 -0.566,-2.024 -1.082,-2.903 -0.316,-0.543 -1.106,-0.812 -1.684,-1.207 -0.285,0.582 -0.785,1.157 -0.816,1.75 -0.09,1.817 0.512,3.313 1.816,4.766 3.297,3.664 7.055,5.25 11.93,3.769 0.621,-0.187 1.789,0.039 2.117,0.496 2.262,3.126 5.496,4.321 9.078,4.954 2.817,0.496 5.5,1.285 7.528,3.496 2.238,2.445 2.929,5.203 1.73,8.359 -0.094,0.242 -0.316,0.524 -0.262,0.727 0.188,0.683 0.473,1.343 0.723,2.011 0.625,-0.312 1.566,-0.464 1.828,-0.968 1.586,-3.036 1.68,-6.207 0.035,-9.239 -0.742,-1.371 -0.507,-2.265 0.489,-3.269 2.59,-2.61 5.636,-3.149 9.054,-2.113 0.625,0.187 1.219,0.652 1.832,0.664 0.668,0.015 1.34,-0.344 2.012,-0.543 -0.285,-0.641 -0.387,-1.567 -0.883,-1.883 -4.293,-2.778 -10.808,-1.77 -14.215,2.094 -0.343,0.386 -0.675,0.785 -0.648,0.753 -3.832,-1.16 -7.328,-2.332 -10.887,-3.261 -2.832,-0.742 -6.633,-3.934 -6.683,-6.477 -0.039,-2.004 0.449,-3.625 2.183,-4.711 1.567,-0.984 3.055,-0.578 4.34,0.532 1.059,0.914 1.899,2.089 2.981,2.964 0.711,0.578 1.687,0.836 2.546,1.239 -0.054,-0.875 0.188,-1.938 -0.226,-2.582 -0.836,-1.309 -1.918,-2.512 -3.094,-3.536 -2.137,-1.863 -4.66,-2.468 -7.32,-1.277 -2.977,1.332 -3.91,4.02 -4.195,7.02 -0.04,0.445 0.039,0.902 0.066,1.453"
       style="fill:#c5cae9;fill-opacity:1;fill-rule:nonzero;stroke:none"
       id="path52"
       inkscape:connector-curvature="0" /><path
       d="m 137.883,220.258 c 0.398,1.523 0.867,2.82 1.004,4.148 0.043,0.406 -0.742,1.094 -1.293,1.332 -2.5,1.09 -4.227,2.907 -5.074,5.434 -0.211,0.64 0.386,1.543 0.609,2.328 0.633,-0.426 1.637,-0.719 1.836,-1.293 1.074,-3.059 4.398,-5.082 7.543,-4.363 3.644,0.832 6.019,3.238 7.433,6.64 0.274,0.664 0.368,1.465 0.797,1.996 0.379,0.465 1.114,0.645 1.692,0.954 0.285,-0.59 0.925,-1.266 0.8,-1.75 -0.73,-2.895 -1.898,-5.688 -4.32,-7.516 -1.722,-1.301 -3.848,-2.059 -5.789,-3.07 -0.32,-0.168 -0.738,-0.336 -0.887,-0.618 -2.804,-5.296 -2.851,-11.66 2.969,-15.242 1.016,-0.625 2.375,-0.66 3.481,-1.176 0.648,-0.304 1.101,-1.019 1.644,-1.546 -0.598,-0.395 -1.191,-1.106 -1.793,-1.118 -1.219,-0.015 -2.441,0.348 -3.84,0.586 -1.16,-1.683 -0.98,-3.707 -1.027,-5.707 -0.023,-1.062 0.664,-2.73 -1.184,-2.777 -1.832,-0.047 -1.64,1.676 -1.539,2.828 0.203,2.336 1.243,4.762 0.832,6.945 -0.386,2.051 -2.203,3.832 -3.371,5.747 -0.164,0.273 -0.308,0.617 -0.304,0.929 0.003,3.621 -2.887,4.477 -5.426,5.199 -3.047,0.868 -6.801,-1.683 -6.215,-5.98 0.121,-0.895 0.668,-1.738 0.758,-2.633 0.062,-0.64 -0.313,-1.328 -0.492,-1.996 -0.657,0.281 -1.668,0.379 -1.915,0.863 -2.234,4.422 -1.492,9.383 3.34,11.95 2.34,1.242 4.641,1.238 6.989,0.043 0.754,-0.387 1.566,-0.657 2.742,-1.137"
       style="fill:#c5cae9;fill-opacity:1;fill-rule:nonzero;stroke:none"
       id="path54"
       inkscape:connector-curvature="0" /><path
       d="m 164.391,246.328 c -6.227,1.09 -12.161,1.793 -17.879,-1.109 -2.25,-1.141 -3.399,-3.137 -3.907,-5.61 -0.14,-0.687 -0.98,-1.23 -1.503,-1.836 -0.375,0.789 -1.172,1.641 -1.067,2.36 0.711,4.738 3.758,7.465 8.164,8.859 0.863,0.274 1.762,0.434 2.61,0.637 0.113,2.672 -0.918,4.16 -3.164,5.074 -0.594,0.238 -0.969,1.012 -1.446,1.539 0.664,0.367 1.371,1.11 1.989,1.039 2.843,-0.324 4.378,-2.324 5.054,-4.863 0.516,-1.934 1.406,-2.523 3.406,-2.504 2.536,0.027 5.086,-0.422 7.61,-0.801 1.176,-0.179 2.058,-0.168 2.988,0.785 2.055,2.094 4.723,3.082 7.59,3.344 0.699,0.063 1.473,-0.687 2.211,-1.062 -0.594,-0.543 -1.113,-1.414 -1.797,-1.575 -7.18,-1.664 -9.789,-5.324 -9.227,-12.925 0.043,-0.61 -0.714,-1.282 -1.101,-1.922 -0.52,0.476 -1.457,0.937 -1.481,1.433 -0.089,2.133 0.039,4.282 0.196,6.418 0.054,0.762 0.402,1.504 0.754,2.719"
       style="fill:#c5cae9;fill-opacity:1;fill-rule:nonzero;stroke:none"
       id="path56"
       inkscape:connector-curvature="0" /><path
       d="m 197.359,248.355 c 0.879,-2.945 1.789,-5.578 2.387,-8.281 0.145,-0.656 -0.734,-1.539 -1.141,-2.316 -0.492,0.66 -1.378,1.301 -1.417,1.984 -0.309,5.817 -5.196,10.629 -11.215,10.961 -0.555,0.031 -1.067,0.832 -1.598,1.274 0.602,0.457 1.313,1.394 1.797,1.289 2.34,-0.508 4.73,-1.055 6.879,-2.067 1.344,-0.633 2.211,-0.5 3.562,-0.156 2.075,0.531 4.344,0.484 6.508,0.348 0.567,-0.036 1.059,-1.297 1.586,-1.996 -0.789,-0.2 -1.641,-0.692 -2.355,-0.543 -1.879,0.394 -3.622,0.449 -4.993,-0.497"
       style="fill:#c5cae9;fill-opacity:1;fill-rule:nonzero;stroke:none"
       id="path58"
       inkscape:connector-curvature="0" /><path
       d="m 155.523,211.465 c 0.411,1.019 1.055,2.922 1.969,4.683 0.278,0.532 1.516,1.118 1.942,0.911 1.07,-0.516 0.941,-1.508 0.269,-2.481 -1.543,-2.242 -1.644,-4.687 -0.605,-7.125 0.531,-1.25 1.484,-2.32 2.035,-3.562 0.305,-0.692 0.176,-1.579 0.238,-2.375 -0.781,0.183 -1.848,0.105 -2.297,0.593 -2.148,2.336 -3.32,5.157 -3.551,9.356"
       style="fill:#c5cae9;fill-opacity:1;fill-rule:nonzero;stroke:none"
       id="path60"
       inkscape:connector-curvature="0" /><path
       d="m 181.812,255.555 c -3.628,0.797 -6.328,2.496 -8.16,5.398 -0.222,0.356 0.032,1.402 0.379,1.617 0.403,0.25 1.434,0.164 1.711,-0.172 1.727,-2.086 3.883,-3.421 6.422,-4.285 0.414,-0.14 0.875,-1.031 0.797,-1.484 -0.074,-0.449 -0.813,-0.785 -1.149,-1.074"
       style="fill:#c5cae9;fill-opacity:1;fill-rule:nonzero;stroke:none"
       id="path62"
       inkscape:connector-curvature="0" /></g></svg>